<?xml version="1.0"?>
<svg xmlns="http://www.w3.org/2000/svg" xmlns:xlink="http://www.w3.org/1999/xlink" xmlns:svgjs="http://svgjs.com/svgjs" version="1.1" width="512" height="512" x="0" y="0" viewBox="0 0 512 512" style="enable-background:new 0 0 512 512" xml:space="preserve" class=""><g><g xmlns="http://www.w3.org/2000/svg"><path d="m408.226 140.282c-4.142 0-7.459 3.358-7.459 7.5s3.398 7.5 7.54 7.5 7.5-3.358 7.5-7.5-3.358-7.5-7.5-7.5z" fill="#ffffff" data-original="#000000" style="" class=""/><path d="m392.274 164.331h-.081c-4.142 0-7.459 3.358-7.459 7.5s3.398 7.5 7.54 7.5 7.5-3.358 7.5-7.5-3.357-7.5-7.5-7.5z" fill="#ffffff" data-original="#000000" style="" class=""/><path d="m376.162 140.282c-4.142 0-7.46 3.358-7.46 7.5s3.398 7.5 7.54 7.5 7.5-3.358 7.5-7.5-3.358-7.5-7.5-7.5z" fill="#ffffff" data-original="#000000" style="" class=""/><path d="m320.129 148.298c-4.142 0-7.5 3.358-7.5 7.5s3.358 7.5 7.5 7.5h17.068c1.319 9.729 5.155 18.666 10.842 26.128l-12.083 12.083c-2.929 2.929-2.929 7.677 0 10.606 1.464 1.464 3.384 2.196 5.303 2.196s3.839-.732 5.303-2.196l12.083-12.083c7.462 5.687 16.399 9.523 26.128 10.842v17.068c0 4.143 3.358 7.5 7.5 7.5s7.5-3.357 7.5-7.5v-17.068c9.729-1.318 18.666-5.155 26.128-10.842l12.083 12.083c1.464 1.464 3.384 2.196 5.303 2.196s3.839-.732 5.303-2.196c2.929-2.929 2.929-7.678 0-10.606l-12.083-12.083c5.687-7.462 9.524-16.399 10.842-26.128h17.068c4.142 0 7.5-3.358 7.5-7.5s-3.358-7.5-7.5-7.5h-17.06c-1.279-9.539-4.99-18.498-10.831-26.147l12.064-12.064c2.929-2.929 2.929-7.677 0-10.606s-7.678-2.929-10.606 0l-17.005 17.005c-2.929 2.929-2.929 7.678 0 10.606.003.003.007.006.01.01.005.005.009.01.014.015 7.652 7.665 11.867 17.851 11.867 28.682 0 22.385-18.211 40.597-40.597 40.597s-40.597-18.212-40.597-40.597 18.212-40.597 40.597-40.597c2.469 0 4.939.222 7.343.661 4.073.742 7.981-1.957 8.725-6.032s-1.957-7.98-6.031-8.725c-.84-.153-1.686-.286-2.536-.401v-17.052c0-4.142-3.358-7.5-7.5-7.5s-7.5 3.358-7.5 7.5v17.068c-9.729 1.318-18.666 5.155-26.128 10.842l-12.083-12.083c-2.929-2.929-7.678-2.929-10.606 0-2.929 2.929-2.929 7.678 0 10.606l12.083 12.083c-5.687 7.462-9.524 16.399-10.842 26.128h-17.069z" fill="#ffffff" data-original="#000000" style="" class=""/><path d="m392.274 36.072c-23.084 0-45.496 6.585-64.812 19.043-18.804 12.128-33.808 29.199-43.389 49.367-1.777 3.741-.186 8.215 3.556 9.992 3.741 1.777 8.216.186 9.993-3.556 8.383-17.646 21.513-32.583 37.97-43.198 16.887-10.892 36.487-16.649 56.681-16.649 57.748.001 104.727 46.981 104.727 104.727s-46.979 104.726-104.726 104.726h-344.693c-4.142 0-7.5 3.357-7.5 7.5 0 4.142 3.358 7.5 7.5 7.5h344.694c66.017 0 119.726-53.709 119.726-119.726s-53.709-119.726-119.727-119.726z" fill="#ffffff" data-original="#000000" style="" class=""/><path d="m272.032 380.766c-4.142 0-7.5 3.358-7.5 7.5s3.358 7.5 7.5 7.5h9.254c1.03 5.342 3.13 10.308 6.08 14.656l-6.55 6.55c-2.929 2.929-2.929 7.677 0 10.606 1.464 1.464 3.384 2.196 5.303 2.196s3.839-.732 5.303-2.196l6.55-6.55c4.348 2.95 9.313 5.05 14.656 6.08v9.254c0 4.142 3.358 7.5 7.5 7.5s7.5-3.358 7.5-7.5v-9.254c5.343-1.03 10.308-3.13 14.656-6.08l6.55 6.551c1.464 1.464 3.384 2.196 5.303 2.196s3.839-.732 5.303-2.196c2.929-2.929 2.929-7.678 0-10.606l-6.55-6.551c2.95-4.348 5.05-9.313 6.08-14.656h9.254c4.142 0 7.5-3.358 7.5-7.5s-3.358-7.5-7.5-7.5h-9.254c-1.03-5.342-3.13-10.308-6.08-14.656l6.55-6.551c2.929-2.929 2.929-7.677 0-10.606s-7.678-2.929-10.606 0l-6.55 6.551c-4.348-2.95-9.314-5.05-14.656-6.08v-9.254c0-4.142-3.358-7.5-7.5-7.5s-7.5 3.358-7.5 7.5v9.254c-5.342 1.03-10.308 3.13-14.656 6.08l-6.55-6.55c-2.929-2.929-7.678-2.929-10.606 0-2.929 2.929-2.929 7.678 0 10.606l6.55 6.55c-2.95 4.348-5.05 9.314-6.08 14.656zm48.097-17.064c13.545 0 24.564 11.02 24.564 24.564s-11.02 24.564-24.564 24.564-24.564-11.02-24.564-24.564 11.019-24.564 24.564-24.564z" fill="#ffffff" data-original="#000000" style="" class=""/><path d="m320.129 300.604h-296.597c-4.142 0-7.5 3.358-7.5 7.5 0 4.143 3.358 7.5 7.5 7.5h296.597c40.066 0 72.662 32.596 72.662 72.662s-32.596 72.662-72.662 72.662c-28.882 0-55.026-17.102-66.605-43.569-1.66-3.795-6.083-5.525-9.877-3.866-3.795 1.66-5.525 6.083-3.865 9.877 13.967 31.927 45.505 52.557 80.347 52.557 48.337 0 87.662-39.325 87.662-87.662s-39.325-87.661-87.662-87.661z" fill="#ffffff" data-original="#000000" style="" class=""/><path d="m199.887 340.686h-192.387c-4.142 0-7.5 3.358-7.5 7.5s3.358 7.5 7.5 7.5h192.387c4.142 0 7.5-3.358 7.5-7.5s-3.358-7.5-7.5-7.5z" fill="#ffffff" data-original="#000000" style="" class=""/><path d="m63.613 235.443h168.339c17.396 0 31.548-14.152 31.548-31.548s-14.152-31.549-31.548-31.549c-4.142 0-7.5 3.358-7.5 7.5s3.358 7.5 7.5 7.5c9.125 0 16.548 7.424 16.548 16.549s-7.423 16.548-16.548 16.548h-168.339c-4.142 0-7.5 3.358-7.5 7.5 0 4.143 3.358 7.5 7.5 7.5z" fill="#ffffff" data-original="#000000" style="" class=""/></g></g></svg>
