<svg height="512" viewBox="0 0 56 46" width="512" xmlns="http://www.w3.org/2000/svg"><g id="Page-1" fill="none" fill-rule="evenodd"><g id="008---Certificate" fill="rgb(0,0,0)" fill-rule="nonzero"><path id="Shape" d="m39.617 39.924c-.3735907-.1548963-.6171018-.5195709-.617-.924v-11c-.1934414.0060002-.3869527-.009427-.577-.046-.8032699-.1563748-1.4798734-.6945227-1.813-1.442-.1161615-.2491899-.4073055-.3635364-.662-.26-.3039558.1078194-.6257647.1563623-.948.143v17.78c.0000863.4043959.2437275.7689341.6173454.923678.373618.1547439.8036603.0692299 1.0896546-.216678l.586-.586c.3904999-.3903819 1.0235001-.3903819 1.414 0l.586.586c.2863801.2862967.7171518.3716214 1.0910431.2161071.3738913-.1555142.6170868-.521165.6159569-.9261071v-4.758l-.293.293c-.2859855.2861653-.7162224.3718179-1.09.217z"/><path id="Shape" d="m44.707 34.293 2.293 2.293v-10.194c-.322561.0133421-.6446935-.0351985-.949-.143-.2608463-.0961741-.5518449.0238791-.669.276-.3332781.7390841-1.0042686 1.2706577-1.8 1.426-.1666632.0329206-.3361168.0496651-.506.05-.6351791.0000799-1.2465733-.2416174-1.71-.676-.0994254-.0921622-.2304396-.1426349-.366-.141v9.4l.292-.292 2-2c.1877009-.1876445.442298-.2929743.7077073-.2927868.2654092.0001876.5198572.1058771.7072927.2937868z"/><circle id="Oval" cx="41" cy="15" r="6"/><path id="Shape" d="m35.256 24.373c1.2406191-.4530522 2.6216013.1186284 3.179 1.316.0685945.1563888.2101202.2687107.378.3.1673977.0348216.3412661-.0140555.466-.131.9730093-.8944445 2.4689907-.8944445 3.442 0 .124648.1170965.2985963.1659961.466.131.1676544-.0312634.3088851-.1436486.377-.3.5584928-1.1967955 1.938872-1.7684809 3.18-1.317.1598824.0594453.3385737.0386205.4805014-.0559979.1419277-.0946185.229878-.2515548.2364986-.4220021.0561792-1.3220438 1.1168219-2.3800772 2.439-2.433.1701932-.0067279.3268752-.0945402.4214465-.2361992.0945712-.1416589.1155962-.3200355.0565535-.4798008-.4536612-1.2409093.1181164-2.6225603 1.316-3.18.1550911-.0710188.266722-.2120993.3001751-.379365.0334531-.1672656-.0153291-.3404288-.1311751-.465635-.8947876-.9724915-.8947876-2.4685085 0-3.441.1154849-.1250592.1641511-.2978304.1309194-.4647802s-.144348-.3079158-.2989194-.3792198c-1.1986408-.5567253-1.7710355-1.9388172-1.317-3.18.059112-.15965013.0380918-.33796273-.0565242-.47949084-.094616-.1415281-.251354-.22910903-.4214758-.23550916-1.3205495-.05646476-2.3780777-1.11442741-2.434-2.435-.0066206-.17044735-.0945709-.32738359-.2364986-.42200207-.1419277-.09461847-.320619-.11544326-.4805014-.05599793-1.2406083.45254124-2.6212478-.11899752-3.179-1.316-.0707709-.15506328-.2116781-.26672705-.3788103-.30019308-.1671321-.03346604-.3401702.01533427-.4651897.13119308-.972823.89492251-2.469177.89492251-3.442 0-.1246936-.11593485-.297493-.16490492-.4644721-.13162795-.1669791.03327698-.3078044.14474876-.3785279.29962795-.5588447 1.19642777-1.9388831 1.76797199-3.18 1.317-.1598824-.05944533-.3385737-.03862054-.4805014.05599793-.1419277.09461848-.229878.25155472-.2364986.42200207-.0558533 1.32427878-1.1195034 2.38357679-2.444 2.434-.1701932.0067279-.3268752.09454018-.4214465.23619915-.0945712.14165898-.1155962.32003559-.0565535.47980085.4536612 1.2409093-.1181164 2.6225603-1.316 3.18-.1550911.0710188-.266722.2120993-.3001751.379365-.0334531.1672656.0153291.3404288.1311751.465635.8947876.9724915.8947876 2.4685085 0 3.441-.1154849.1250592-.1641511.2978304-.1309194.4647802s.144348.3079158.2989194.3792198c1.1986408.5567253 1.7710355 1.9388172 1.317 3.18-.059112.1596501-.0380918.3379627.0565242.4794908s.251354.2291091.4214758.2355092c1.324341.0541219 2.385421 1.115637 2.439 2.44.0066206.1704473.0945709.3273836.2364986.4220021.1419277.0946184.320619.1154432.4805014.0559979zm-2.256-9.373c0-4.418278 3.581722-8 8-8s8 3.581722 8 8-3.581722 8-8 8c-4.4162219-.0049599-7.9950401-3.5837781-8-8z"/><path id="Shape" d="m53 0h-50c-1.65685425 0-3 1.34314575-3 3v36c0 1.6568542 1.34314575 3 3 3h30v-16.693c-.2791025-.3918875-.4385441-.8563176-.459-1.337-.0122103-.2773862-.2345905-.4993321-.512-.511-.8106989-.031264-1.5573205-.4491184-2.0079431-1.123766-.4506227-.6746477-.5506672-1.5243754-.2690569-2.285234.0958454-.2605516-.0247753-.5509992-.277-.667-.7375447-.3386029-1.267987-1.0103464-1.4263468-1.8063027-.1583599-.7959562.0745714-1.6195771.6263468-2.2146973.187958-.2043525.187958-.5186475 0-.723-.5517631-.595307-.7846765-1.4190532-.6263294-2.2151431s.6887568-1.4680066 1.4263294-1.8068569c.2514652-.1167196.3714663-.4067225.276-.667-.2816103-.76085861-.1815658-1.61058634.2690569-2.28523395.4506226-.67464762 1.1972442-1.09250207 2.0079431-1.12376605.2774095-.01166795.4997897-.2336138.512-.511.0303163-.8109852.4476853-1.55824793 1.1222969-2.00937462.6746115-.4511267 1.5246376-.5513972 2.2857031-.26962538.260874.09773368.5529249-.02275372.669-.276.3386029-.73754473 1.0103464-1.26798697 1.8063027-1.42634683.7959562-.15835985 1.6195771.07457144 2.2146973.62634683.204021.18782316.517979.18782316.722 0 .595307-.55176308 1.4190532-.78467648 2.2151431-.62632941.7960899.15834706 1.4680066.68875681 1.8068569 1.42632941.1156752.25309785.4076617.37330188.668.275.7610655-.28177182 1.6110916-.18150132 2.2857031.26962538.6746116.45112669 1.0919806 1.19838942 1.1222969 2.00937462.0122103.2773862.2345905.49933205.512.511.8106989.03126398 1.5573205.44911843 2.0079431 1.12376605.4506227.67464761.5506672 1.52437534.2690569 2.28523395-.0958454.2605516.0247753.5509992.277.667.7375447.3386029 1.267987 1.0103464 1.4263468 1.8063027.1583599.7959562-.0745714 1.6195771-.6263468 2.2146973-.187958.2043525-.187958.5186475 0 .723.5517631.595307.7846765 1.4190532.6263294 2.2151431s-.6887568 1.4680066-1.4263294 1.8068569c-.2514652.1167196-.3714663.4067225-.276.667.2816103.7608586.1815658 1.6105863-.2690569 2.285234-.4506226.6746476-1.1972442 1.092502-2.0079431 1.123766-.2774095.0116679-.4997897.2336138-.512.511-.0202644.4810266-.179715.9458303-.459 1.338v13.693c-.0000863.4043959-.2437275.7689341-.6173454.923678-.373618.1547439-.8036603.0692299-1.0896546-.216678l-3.293-3.293-1 1v4.586h10c1.6568542 0 3-1.3431458 3-3v-36c0-1.65685425-1.3431458-3-3-3zm-24 35c0 .5522847-.4477153 1-1 1h-19c-2.76005315-.0033061-4.99669388-2.2399468-5-5v-20c.00330612-2.76005315 2.23994685-4.99669388 5-5h18c.5522847 0 1 .44771525 1 1s-.4477153 1-1 1h-18c-1.65685425 0-3 1.34314575-3 3v20c0 1.6568542 1.34314575 3 3 3h19c.5522847 0 1 .4477153 1 1zm-19-19h14c.5522847 0 1 .4477153 1 1s-.4477153 1-1 1h-14c-.55228475 0-1-.4477153-1-1s.44771525-1 1-1zm-1-3c0-.5522847.44771525-1 1-1h14c.5522847 0 1 .4477153 1 1s-.4477153 1-1 1h-14c-.55228475 0-1-.4477153-1-1zm1 7h14c.5522847 0 1 .4477153 1 1s-.4477153 1-1 1h-14c-.55228475 0-1-.4477153-1-1s.44771525-1 1-1zm-.4 10.083c.6973111-.2494927 1.3417465-.6273353 1.9-1.114.5106308-.501269.7908363-1.1916463.774-1.907-.0302414-.4949132.3067449-.937249.7919241-1.0394975s.9720161.1664716 1.1440759.6314975c.3022539.901624.908517 1.6701465 1.715 2.174.1902124.1388832.4263622.1997097.66.17.1487439-.0987504.2342902-.2687023.225-.447-.0349055-.495614.2993543-.9416924.7848268-1.0473718.4854724-.1056794.9749084.1610941 1.1491732.6263718.1.265.339.641 1.272.856l.773.183c1.3438453.4027417 2.7412223.5983205 4.144.58.550904-.0397645 1.0297355.374596 1.0695.9255s-.374596 1.0297355-.9255 1.0695c-1.607566.0344634-3.2108988-.1780102-4.754-.63l-.756-.179c-.5219594-.1108562-1.0204835-.3122288-1.473-.595-.2254712.2321158-.4983376.4128898-.8.53-.7869646.2649952-1.6519937.1544248-2.347-.3-.4983352-.2859861-.9471309-.6506959-1.329-1.08-.1959453.3272955-.4310079.6295187-.7.9-.7330818.6665172-1.5881018 1.1850302-2.518 1.527-.1260589.0553443-.2623285.0836203-.4.083-.47397644.0005281-.88321632-.3317555-.98003087-.7957393-.09681455-.4639837.14539391-.9321981.58003087-1.1212607z"/></g></g></svg>