<?xml version="1.0"?>
<svg xmlns="http://www.w3.org/2000/svg" xmlns:xlink="http://www.w3.org/1999/xlink" xmlns:svgjs="http://svgjs.com/svgjs" version="1.1" width="512" height="512" x="0" y="0" viewBox="0 0 512 512" style="enable-background:new 0 0 512 512" xml:space="preserve" class=""><g><g xmlns="http://www.w3.org/2000/svg"><path d="m352.509 160.067-60.953-36.572v-43.85c0-8.556-6.96-15.516-15.516-15.516h-.516v-17.065h80.677c4.142 0 7.5-3.358 7.5-7.5.001-21.815-17.748-39.564-39.564-39.564h-96.194c-8.556 0-15.516 6.96-15.516 15.516v24.048c0 4.142 3.358 7.5 7.5 7.5h8.532v17.064h-.516c-8.556 0-15.516 6.96-15.516 15.516v48.097c0 4.142 3.358 7.5 7.5 7.5h62.052l62.812 37.688c7.356 4.414 11.926 12.485 11.926 21.064v286.458c0 9.125-7.424 16.548-16.548 16.548h-176.355c-9.125 0-16.548-7.423-16.548-16.548v-286.458c0-8.579 4.57-16.65 11.926-21.064l34.46-20.676c3.552-2.131 4.704-6.738 2.572-10.29-2.131-3.551-6.738-4.704-10.29-2.572l-34.46 20.676c-11.848 7.109-19.208 20.109-19.208 33.926v286.458c0 17.396 14.152 31.548 31.548 31.548h176.355c17.396 0 31.548-14.152 31.548-31.548v-286.458c.001-13.817-7.36-26.817-19.208-33.926zm-125.082-144.551c0-.285.231-.516.516-.516h96.194c10.931 0 20.217 7.176 23.394 17.064h-120.104zm16.032 31.548h17.065v17.064h-17.065zm33.098 73.178h-49.129v-40.597c0-.285.231-.516.516-.516h48.097c.285 0 .516.231.516.516z" fill="#ffffff" data-original="#000000" style=""/><path d="m370.458 77.489c-4.37-6.555-8.768-10.978-8.953-11.163-1.406-1.407-3.314-2.197-5.303-2.197s-3.897.79-5.303 2.197c-.185.185-4.583 4.608-8.953 11.163-6.155 9.232-9.276 18.049-9.276 26.205 0 12.976 10.557 23.532 23.532 23.532s23.532-10.557 23.532-23.532c0-8.156-3.121-16.973-9.276-26.205zm-14.256 34.737c-4.705 0-8.532-3.828-8.532-8.532 0-7.009 4.435-14.838 8.532-20.429 4.099 5.593 8.533 13.42 8.533 20.429-.001 4.704-3.829 8.532-8.533 8.532z" fill="#ffffff" data-original="#000000" style=""/><path d="m206.219 271.766c12.504-10.171 28.435-16.282 45.772-16.282 15.88 0 30.962 5.028 43.616 14.541 3.311 2.489 8.013 1.823 10.502-1.488s1.822-8.013-1.488-10.502c-15.273-11.481-33.472-17.55-52.629-17.55-48.336 0-87.661 39.325-87.661 87.661 0 48.337 39.325 87.662 87.661 87.662 48.337 0 87.662-39.325 87.662-87.662 0-14.457-3.596-28.789-10.399-41.447-1.961-3.649-6.51-5.016-10.157-3.056-3.648 1.961-5.017 6.509-3.056 10.157 5.634 10.482 8.612 22.359 8.612 34.346 0 17.337-6.112 33.269-16.282 45.773l-23.616-23.616c2.95-4.348 5.05-9.314 6.08-14.656h1.238c4.142 0 7.5-3.358 7.5-7.5s-3.358-7.5-7.5-7.5h-1.238c-1.03-5.342-3.13-10.308-6.08-14.656l.882-.882c2.929-2.929 2.928-7.678 0-10.607-2.93-2.929-7.678-2.928-10.607 0l-.882.882c-4.348-2.95-9.313-5.05-14.656-6.08v-1.238c0-4.142-3.358-7.5-7.5-7.5s-7.5 3.358-7.5 7.5v1.238c-5.343 1.03-10.308 3.13-14.656 6.08zm57.002 78.215c-3.368 1.739-7.185 2.728-11.23 2.728-13.545 0-24.564-11.02-24.564-24.564 0-4.045.989-7.861 2.728-11.23zm-83.89-21.836c0-17.337 6.112-33.268 16.282-45.772l23.616 23.616c-2.95 4.348-5.05 9.313-6.08 14.656h-1.238c-4.142 0-7.5 3.358-7.5 7.5s3.358 7.5 7.5 7.5h1.238c1.03 5.343 3.13 10.308 6.08 14.656l-.882.882c-2.929 2.929-2.929 7.678 0 10.606 1.464 1.464 3.384 2.197 5.303 2.197s3.839-.732 5.303-2.197l.882-.882c4.348 2.95 9.313 5.05 14.656 6.08v1.238c0 4.142 3.358 7.5 7.5 7.5s7.5-3.358 7.5-7.5v-1.238c5.343-1.03 10.308-3.13 14.656-6.08l23.616 23.617c-12.504 10.171-28.436 16.282-45.773 16.282-40.064.001-72.659-32.595-72.659-72.661zm72.661-24.564c13.545 0 24.565 11.02 24.565 24.564 0 4.045-.989 7.861-2.729 11.23l-33.066-33.066c3.368-1.739 7.185-2.728 11.23-2.728z" fill="#ffffff" data-original="#000000" style=""/></g></g></svg>
