<?xml version="1.0"?>
<svg xmlns="http://www.w3.org/2000/svg" xmlns:xlink="http://www.w3.org/1999/xlink" xmlns:svgjs="http://svgjs.com/svgjs" version="1.1" width="512" height="512" x="0" y="0" viewBox="0 0 496 496" style="enable-background:new 0 0 512 512" xml:space="preserve" class=""><g>
<g xmlns="http://www.w3.org/2000/svg">
	<g>
		<path d="M480,273.472V232C480,103.87,376.13,0,248,0S16,103.87,16,232v41.472C6.445,276.85,0.042,285.866,0,296v144    c0,13.255,10.745,24,24,24h56v8c0,13.255,10.745,24,24,24h48c13.255,0,24-10.745,24-24V264c0-13.255-10.745-24-24-24h-48    c-13.255,0-24,10.745-24,24v8H64v-40c0-101.62,82.38-184,184-184s184,82.38,184,184v40h-16v-8c0-13.255-10.745-24-24-24h-48    c-13.255,0-24,10.745-24,24v208c0,13.255,10.745,24,24,24h48c13.255,0,24-10.745,24-24v-8h56c13.255,0,24-10.745,24-24V296    C495.958,285.866,489.555,276.85,480,273.472z M96,264c0-4.418,3.582-8,8-8h48c4.418,0,8,3.582,8,8v208c0,4.418-3.582,8-8,8h-48    c-4.418,0-8-3.582-8-8V264z M400,472c0,4.418-3.582,8-8,8h-48c-4.418,0-8-3.582-8-8V264c0-4.418,3.582-8,8-8h48    c4.418,0,8,3.582,8,8V472z M32,448h-8c-4.418,0-8-3.582-8-8V296c0-4.418,3.582-8,8-8h8V448z M80,288v160H48V288H80z M448,448h-32    V288h32V448z M248,32C137.594,32.123,48.123,121.594,48,232v40H32v-40c0-119.294,96.706-216,216-216s216,96.706,216,216v40h-16    v-40C447.877,121.594,358.406,32.123,248,32z M480,440c0,4.418-3.582,8-8,8h-8V288h8c4.418,0,8,3.582,8,8V440z" fill="#22c06c" data-original="#000000" style=""/>
	</g>
</g>
<g xmlns="http://www.w3.org/2000/svg">
</g>
<g xmlns="http://www.w3.org/2000/svg">
</g>
<g xmlns="http://www.w3.org/2000/svg">
</g>
<g xmlns="http://www.w3.org/2000/svg">
</g>
<g xmlns="http://www.w3.org/2000/svg">
</g>
<g xmlns="http://www.w3.org/2000/svg">
</g>
<g xmlns="http://www.w3.org/2000/svg">
</g>
<g xmlns="http://www.w3.org/2000/svg">
</g>
<g xmlns="http://www.w3.org/2000/svg">
</g>
<g xmlns="http://www.w3.org/2000/svg">
</g>
<g xmlns="http://www.w3.org/2000/svg">
</g>
<g xmlns="http://www.w3.org/2000/svg">
</g>
<g xmlns="http://www.w3.org/2000/svg">
</g>
<g xmlns="http://www.w3.org/2000/svg">
</g>
<g xmlns="http://www.w3.org/2000/svg">
</g>
</g></svg>
