<?xml version="1.0"?>
<svg xmlns="http://www.w3.org/2000/svg" xmlns:xlink="http://www.w3.org/1999/xlink" xmlns:svgjs="http://svgjs.com/svgjs" version="1.1" width="512" height="512" x="0" y="0" viewBox="0 0 64 64" style="enable-background:new 0 0 512 512" xml:space="preserve"><g><path xmlns="http://www.w3.org/2000/svg" d="M60,17H55.624A8.466,8.466,0,0,0,56,14.5v-5A8.5,8.5,0,0,0,42.4,2.7L37.511,6.367A3,3,0,0,0,35,5H29a3,3,0,0,0-2.511,1.367L21.6,2.7A8.5,8.5,0,0,0,8,9.5v5A8.466,8.466,0,0,0,8.376,17H4a3,3,0,0,0-3,3v8a3,3,0,0,0,3,3V60a3,3,0,0,0,3,3H57a3,3,0,0,0,3-3V31a3,3,0,0,0,3-3V20A3,3,0,0,0,60,17ZM43.6,4.3A6.5,6.5,0,0,1,54,9.5v5a6.5,6.5,0,0,1-10.4,5.2L38,15.5V12.65l7.606-3.381A3.125,3.125,0,0,1,50,12.125V14h2V12.125a5.124,5.124,0,0,0-7.206-4.683L38,10.461V8.5ZM28,31V54a1,1,0,0,0,1.707.707L32,52.414l2.293,2.293A1,1,0,0,0,35,55a.987.987,0,0,0,.383-.076A1,1,0,0,0,36,54V31h2V61H26V31Zm2,0h4V51.586l-1.293-1.293a1,1,0,0,0-1.414,0L30,51.586Zm-6-2V19.5l2.489-1.867A3,3,0,0,0,29,19h6a3,3,0,0,0,2.511-1.367L40,19.5V29ZM28,8a1,1,0,0,1,1-1h6a1,1,0,0,1,1,1v8a1,1,0,0,1-1,1H29a1,1,0,0,1-1-1ZM10,9.5A6.5,6.5,0,0,1,20.4,4.3L26,8.5v1.961L19.206,7.442A5.124,5.124,0,0,0,12,12.125V14h2V12.125a3.125,3.125,0,0,1,4.394-2.856L26,12.65V15.5l-5.6,4.2A6.5,6.5,0,0,1,10,14.5ZM3,28V20a1,1,0,0,1,1-1H9.3a8.485,8.485,0,0,0,12.3,2.3L22,21v8H4A1,1,0,0,1,3,28ZM6,60V31H24V61H7A1,1,0,0,1,6,60Zm52,0a1,1,0,0,1-1,1H40V31H58Zm3-32a1,1,0,0,1-1,1H42V21l.4.3A8.485,8.485,0,0,0,54.7,19H60a1,1,0,0,1,1,1Z" fill="#22c06c" data-original="#000000" style=""/></g></svg>
