<?xml version="1.0" encoding="utf-8"?>
<!-- Generator: Adobe Illustrator 24.1.2, SVG Export Plug-In . SVG Version: 6.00 Build 0)  -->
<svg version="1.1" xmlns="http://www.w3.org/2000/svg" xmlns:xlink="http://www.w3.org/1999/xlink" x="0px" y="0px"
	 viewBox="0 0 446.9 446.9" style="enable-background:new 0 0 446.9 446.9;" xml:space="preserve">
<g id="Layer_2">
</g>
<g id="Capa_1">
	<g>
		<path d="M-10-13v467h467V-13H-10z M365.6,132.5L327.9,250c-1.2,3.7-4.7,6.3-8.6,6.3H183l-8.1,22.6h144.5c4.2,0,7.5,3.4,7.5,7.5
			c0,4.2-3.4,7.5-7.5,7.5h-8.5c4.3,4.8,7,11.1,7,18.1c0,15-12.2,27.1-27.1,27.1c-15,0-27.1-12.2-27.1-27.1c0-7,2.6-13.3,7-18.1
			h-59.1c4.3,4.8,7,11.1,7,18.1c0,15-12.2,27.1-27.1,27.1c-14.9,0-27.1-12.2-27.1-27.1c0-7,2.6-13.3,7-18.1h-7
			c-2.5,0-4.7-1.2-6.2-3.2c-1.4-2-1.8-4.6-0.9-6.9l9.9-27.6h-4.3c-4.4,0-8.1-3.1-8.9-7.4l-26.2-142.7L90,91.5
			c-4.6-1.8-6.9-7.1-5.1-11.7c1.8-4.6,7.1-6.9,11.7-5.1l42.2,16.6c2.9,1.1,5,3.7,5.6,6.8l25.8,140.2h142.6l32-99.9l-162.9-7
			c-5-0.2-8.9-4.4-8.6-9.4c0.2-5,4.4-8.9,9.4-8.6l174.8,7.5c2.8,0.1,5.4,1.5,7,3.9C366,126.9,366.4,129.8,365.6,132.5z"/>
		<path d="M290.7,324.1c6.6,0,12.1-5.4,12.1-12.1s-5.4-12.1-12.1-12.1s-12.1,5.4-12.1,12.1S284,324.1,290.7,324.1z"/>
		<path d="M191.2,324.1c6.6,0,12.1-5.4,12.1-12.1s-5.4-12.1-12.1-12.1s-12.1,5.4-12.1,12.1S184.6,324.1,191.2,324.1z"/>
	</g>
</g>
</svg>
