<?xml version="1.0"?>
<svg xmlns="http://www.w3.org/2000/svg" xmlns:xlink="http://www.w3.org/1999/xlink" xmlns:svgjs="http://svgjs.com/svgjs" version="1.1" width="512" height="512" x="0" y="0" viewBox="0 0 64 64" style="enable-background:new 0 0 512 512" xml:space="preserve" class=""><g><g xmlns="http://www.w3.org/2000/svg" id="Layer_10" data-name="Layer 10"><path d="m58 11h-52a5.006 5.006 0 0 0 -5 5v32a5.006 5.006 0 0 0 5 5h52a5.006 5.006 0 0 0 5-5v-32a5.006 5.006 0 0 0 -5-5zm-52 2h52a3 3 0 0 1 3 3v5h-58v-5a3 3 0 0 1 3-3zm52 38h-52a3 3 0 0 1 -3-3v-25h58v25a3 3 0 0 1 -3 3z" fill="#22c06c" data-original="#000000" style="" class=""/><path d="m11 44.715-1 1.5-1-1.5v-4.7h-2v5a1.006 1.006 0 0 0 .168.555l2 3a1 1 0 0 0 1.664 0l2-3a1.006 1.006 0 0 0 .168-.552v-5h-2z" fill="#22c06c" data-original="#000000" style="" class=""/><path d="m15 40.018h2v9h-2z" fill="#22c06c" data-original="#000000" style="" class=""/><path d="m22 40.018h-2a1 1 0 0 0 -1 1v8h2v-3h1a3 3 0 0 0 0-6zm0 4h-1v-2h1a1 1 0 0 1 0 2z" fill="#22c06c" data-original="#000000" style="" class=""/><path d="m19.667 36.817a1 1 0 0 0 .41-.978l-.509-3.12 2.148-2.2a1 1 0 0 0 -.565-1.687l-2.927-.447-1.319-2.809a1 1 0 0 0 -1.81 0l-1.319 2.809-2.927.447a1 1 0 0 0 -.565 1.687l2.148 2.2-.509 3.12a1 1 0 0 0 1.471 1.036l2.606-1.44 2.606 1.44a1 1 0 0 0 1.061-.058zm-1.883-5.133a1 1 0 0 0 -.271.859l.259 1.586-1.288-.712a1 1 0 0 0 -.968 0l-1.288.712.259-1.586a1 1 0 0 0 -.271-.859l-1.141-1.169 1.531-.234a1 1 0 0 0 .754-.564l.64-1.363.64 1.363a1 1 0 0 0 .754.564l1.531.234z" fill="#22c06c" data-original="#000000" style="" class=""/><path d="m29 47h14v2h-14z" fill="#22c06c" data-original="#000000" style="" class=""/><path d="m43.146 45h6.708v2h-6.708z" transform="matrix(.447 -.894 .894 .447 -15.439 67.019)" fill="#22c06c" data-original="#000000" style="" class=""/><path d="m49 47h8v2h-8z" fill="#22c06c" data-original="#000000" style="" class=""/><path d="m30 33h6a1 1 0 0 0 1-1v-6a1 1 0 0 0 -1-1h-6a1 1 0 0 0 -1 1v6a1 1 0 0 0 1 1zm1-6h4v4h-4z" fill="#22c06c" data-original="#000000" style="" class=""/><path d="m40 33h6a1 1 0 0 0 1-1v-6a1 1 0 0 0 -1-1h-6a1 1 0 0 0 -1 1v6a1 1 0 0 0 1 1zm1-6h4v4h-4z" fill="#22c06c" data-original="#000000" style="" class=""/><path d="m56 25h-6a1 1 0 0 0 -1 1v6a1 1 0 0 0 1 1h6a1 1 0 0 0 1-1v-6a1 1 0 0 0 -1-1zm-1 6h-4v-4h4z" fill="#22c06c" data-original="#000000" style="" class=""/><path d="m29 35h28v2h-28z" fill="#22c06c" data-original="#000000" style="" class=""/><path d="m29 39h28v2h-28z" fill="#22c06c" data-original="#000000" style="" class=""/></g></g></svg>
