<?xml version="1.0" encoding="utf-8"?>
<!-- Generator: Adobe Illustrator 24.1.2, SVG Export Plug-In . SVG Version: 6.00 Build 0)  -->
<svg version="1.1" id="Layer_1" xmlns="http://www.w3.org/2000/svg" xmlns:xlink="http://www.w3.org/1999/xlink" x="0px" y="0px"
	 viewBox="0 0 661.5 181.9" style="enable-background:new 0 0 661.5 181.9;" xml:space="preserve">
<style type="text/css">
	.st0{fill:#1A99F6;}
	.st1{fill:#FFFFFF;}
	.st2{font-family:'Poppins-SemiBold';}
	.st3{font-size:47.4499px;}
</style>
<path class="st0" d="M574.2,159.9h-487c-36.9,0-67-30.2-67-67v-0.9c0-36.9,30.2-67,67-67h487c36.9,0,67,30.2,67,67v0.9
	C641.2,129.7,611,159.9,574.2,159.9z"/>
<g>
	<path class="st1" d="M176.2,58.6h-65.4c-4.4,0-7.9,3.5-7.9,7.9v51.9c0,4.4,3.5,7.9,7.9,7.9h65.4c4.4,0,7.9-3.5,7.9-7.9V66.5
		C184.1,62.1,180.6,58.6,176.2,58.6L176.2,58.6z M176.2,58.6"/>
	<path class="st1" d="M189.3,103.2l27.1,14.8V67l-27.1,14.8V103.2z M189.3,103.2"/>
</g>
<text transform="matrix(1 0 0 1 245.5842 109.7035)" class="st1 st2 st3">ZOOM ONLINE</text>
</svg>
