<svg height="512pt" viewBox="0 -64 512 512" width="512pt" xmlns="http://www.w3.org/2000/svg"><path d="m130.453125 298.753906 48.089844-48.09375 10.644531 10.644532-48.09375 48.089843zm0 0"/><path d="m87.191406 135.769531h-15.054687v-63.632812h47.601562v15.054687h-32.546875zm0 0"/><path d="m392.257812 0v15.054688h104.6875v353.648437h-481.890624v-353.648437h353.160156v-15.054688h-368.214844v383.757812h512v-383.757812zm0 0"/><path d="m328.136719 343.679688h143.785156v-303.601563h-431.84375v303.601563h264.011719v-15.054688h-238.316406l75.320312-75.316406-10.644531-10.648438-75.316407 75.320313v-262.851563h401.738282v182.699219l-80.640625-80.640625-72.136719 72.136719-80.152344-80.152344-77.460937 77.460937 10.644531 10.644532 66.816406-66.816406 158.164063 158.164062h-53.96875zm-13.398438-103.710938 61.492188-61.492188 80.640625 80.640626v69.507812h-53.476563zm0 0"/><path d="m351.695312 119.742188c0-26.25-21.355468-47.605469-47.605468-47.605469-26.246094 0-47.601563 21.355469-47.601563 47.605469s21.355469 47.601562 47.601563 47.601562c26.25 0 47.605468-21.351562 47.605468-47.601562zm-80.152343 0c0-17.949219 14.601562-32.550782 32.546875-32.550782 17.949218 0 32.550781 14.601563 32.550781 32.550782 0 17.945312-14.601563 32.546874-32.550781 32.546874-17.945313 0-32.546875-14.601562-32.546875-32.546874zm0 0"/><path d="m194.566406 234.644531 16.03125-16.027343 10.644532 10.644531-16.03125 16.027343zm0 0"/><path d="m72.136719 151.800781h15.054687v16.03125h-15.054687zm0 0"/><path d="m72.136719 183.863281h15.054687v16.03125h-15.054687zm0 0"/></svg>