<?xml version="1.0"?>
<svg xmlns="http://www.w3.org/2000/svg" xmlns:xlink="http://www.w3.org/1999/xlink" xmlns:svgjs="http://svgjs.com/svgjs" version="1.1" width="512" height="512" x="0" y="0" viewBox="0 0 512 512" style="enable-background:new 0 0 512 512" xml:space="preserve" class=""><g><path xmlns="http://www.w3.org/2000/svg" d="m486.398438 153.304688h-25.597657v-68.269532h8.257813c6.726562.015625 12.839844-3.902344 15.632812-10.019531 3.007813-6.328125 2.03125-13.828125-2.5-19.175781l-42.375-49.953125c-3.34375-3.742188-8.117187-5.88281275-13.136718-5.886719-5.015626-.00390625-9.796876 2.128906-13.144532 5.863281l-42.445312 50.035157c-4.492188 5.339843-5.449219 12.8125-2.449219 19.117187 2.796875 6.113281 8.910156 10.035156 15.632813 10.019531h8.261718v68.269532h-273.070312v-68.269532h8.261718c6.722657.015625 12.835938-3.902344 15.632813-10.019531 3.007813-6.328125 2.027344-13.828125-2.5-19.175781l-42.375-49.953125c-3.34375-3.742188-8.121094-5.88281275-13.136719-5.886719s-9.796875 2.128906-13.148437 5.863281l-42.441407 50.035157c-4.492187 5.339843-5.453124 12.816406-2.449218 19.117187 2.792968 6.117187 8.90625 10.035156 15.632812 10.019531h8.257813v68.269532h-25.597657c-14.132812.015624-25.585937 11.46875-25.601562 25.597656v264.535156c.015625 14.132812 11.46875 25.582031 25.601562 25.597656h8.53125v17.070313c0 14.136719 11.460938 25.597656 25.601563 25.597656 14.136719 0 25.597656-11.460937 25.597656-25.597656v-17.070313h341.335938v17.070313c0 14.136719 11.460937 25.597656 25.597656 25.597656 14.140625 0 25.601563-11.460937 25.601563-25.597656v-17.070313h8.53125c14.132812-.015625 25.585937-11.464844 25.601562-25.597656v-264.535156c-.015625-14.128906-11.46875-25.582032-25.601562-25.597656zm-102.15625-85.316407-.085938-1.105469 42.625-49.980468 42.390625 49.980468 6.507813-5.519531-6.621094 6.605469h-16.792969c-4.710937 0-8.53125 3.820312-8.53125 8.535156v93.867188h-34.132813v-93.867188c0-4.714844-3.820312-8.535156-8.535156-8.535156h-.890625zm-341.335938 0-.082031-1.105469 42.625-49.980468 42.390625 49.980468 6.507812-5.519531-6.621094 6.605469h-16.792968c-4.714844 0-8.535156 3.820312-8.535156 8.535156v93.867188h-34.132813v-93.867188c0-4.714844-3.820313-8.535156-8.53125-8.535156h-.894531zm25.359375 418.117188c0 4.710937-3.820313 8.53125-8.53125 8.53125-4.714844 0-8.535156-3.820313-8.535156-8.53125v-17.070313h17.066406zm392.535156 0c0 4.710937-3.820312 8.53125-8.535156 8.53125-4.710937 0-8.53125-3.820313-8.53125-8.53125v-17.070313h17.066406zm34.132813-42.667969c-.003906 4.710938-3.824219 8.527344-8.535156 8.53125h-460.796876c-4.710937-.003906-8.53125-3.820312-8.535156-8.53125v-264.535156c.003906-4.710938 3.824219-8.527344 8.535156-8.53125h25.597657c.011719 9.421875 7.644531 17.054687 17.066406 17.066406h34.132813c9.421874-.011719 17.058593-7.644531 17.066406-17.066406h273.070312c.007813 9.421875 7.644532 17.054687 17.066406 17.066406h34.132813c9.421875-.011719 17.054687-7.644531 17.066406-17.066406h25.597657c4.710937.003906 8.53125 3.820312 8.535156 8.53125zm0 0" fill="#22c06c" data-original="#000000" style="" class=""/><path xmlns="http://www.w3.org/2000/svg" d="m51.199219 204.503906c-4.710938 0-8.53125 3.820313-8.53125 8.53125v213.335938c0 4.710937 3.820312 8.53125 8.53125 8.53125 4.714843 0 8.535156-3.820313 8.535156-8.53125v-213.335938c0-4.710937-3.820313-8.53125-8.535156-8.53125zm0 0" fill="#22c06c" data-original="#000000" style="" class=""/><path xmlns="http://www.w3.org/2000/svg" d="m85.332031 204.503906c-4.710937 0-8.53125 3.820313-8.53125 8.53125v213.335938c0 4.710937 3.820313 8.53125 8.53125 8.53125 4.714844 0 8.535157-3.820313 8.535157-8.53125v-213.335938c0-4.710937-3.820313-8.53125-8.535157-8.53125zm0 0" fill="#22c06c" data-original="#000000" style="" class=""/><path xmlns="http://www.w3.org/2000/svg" d="m119.464844 204.503906c-4.710938 0-8.53125 3.820313-8.53125 8.53125v213.335938c0 4.710937 3.820312 8.53125 8.53125 8.53125 4.714844 0 8.535156-3.820313 8.535156-8.53125v-213.335938c0-4.710937-3.820312-8.53125-8.535156-8.53125zm0 0" fill="#22c06c" data-original="#000000" style="" class=""/><path xmlns="http://www.w3.org/2000/svg" d="m153.601562 204.503906c-4.714843 0-8.535156 3.820313-8.535156 8.53125v213.335938c0 4.710937 3.820313 8.53125 8.535156 8.53125 4.710938 0 8.53125-3.820313 8.53125-8.53125v-213.335938c0-4.710937-3.820312-8.53125-8.53125-8.53125zm0 0" fill="#22c06c" data-original="#000000" style="" class=""/><path xmlns="http://www.w3.org/2000/svg" d="m187.734375 204.503906c-4.714844 0-8.535156 3.820313-8.535156 8.53125v213.335938c0 4.710937 3.820312 8.53125 8.535156 8.53125 4.710937 0 8.53125-3.820313 8.53125-8.53125v-213.335938c0-4.710937-3.820313-8.53125-8.53125-8.53125zm0 0" fill="#22c06c" data-original="#000000" style="" class=""/><path xmlns="http://www.w3.org/2000/svg" d="m221.867188 204.503906c-4.714844 0-8.535157 3.820313-8.535157 8.53125v213.335938c0 4.710937 3.820313 8.53125 8.535157 8.53125 4.710937 0 8.53125-3.820313 8.53125-8.53125v-213.335938c0-4.710937-3.820313-8.53125-8.53125-8.53125zm0 0" fill="#22c06c" data-original="#000000" style="" class=""/><path xmlns="http://www.w3.org/2000/svg" d="m256 204.503906c-4.710938 0-8.535156 3.820313-8.535156 8.53125v213.335938c0 4.710937 3.824218 8.53125 8.535156 8.53125s8.535156-3.820313 8.535156-8.53125v-213.335938c0-4.710937-3.824218-8.53125-8.535156-8.53125zm0 0" fill="#22c06c" data-original="#000000" style="" class=""/><path xmlns="http://www.w3.org/2000/svg" d="m290.132812 204.503906c-4.710937 0-8.53125 3.820313-8.53125 8.53125v213.335938c0 4.710937 3.820313 8.53125 8.53125 8.53125 4.714844 0 8.535157-3.820313 8.535157-8.53125v-213.335938c0-4.710937-3.820313-8.53125-8.535157-8.53125zm0 0" fill="#22c06c" data-original="#000000" style="" class=""/><path xmlns="http://www.w3.org/2000/svg" d="m324.265625 204.503906c-4.710937 0-8.53125 3.820313-8.53125 8.53125v213.335938c0 4.710937 3.820313 8.53125 8.53125 8.53125 4.714844 0 8.535156-3.820313 8.535156-8.53125v-213.335938c0-4.710937-3.820312-8.53125-8.535156-8.53125zm0 0" fill="#22c06c" data-original="#000000" style="" class=""/><path xmlns="http://www.w3.org/2000/svg" d="m358.398438 204.503906c-4.710938 0-8.53125 3.820313-8.53125 8.53125v213.335938c0 4.710937 3.820312 8.53125 8.53125 8.53125 4.714843 0 8.535156-3.820313 8.535156-8.53125v-213.335938c0-4.710937-3.820313-8.53125-8.535156-8.53125zm0 0" fill="#22c06c" data-original="#000000" style="" class=""/><path xmlns="http://www.w3.org/2000/svg" d="m392.535156 204.503906c-4.714844 0-8.535156 3.820313-8.535156 8.53125v213.335938c0 4.710937 3.820312 8.53125 8.535156 8.53125 4.710938 0 8.53125-3.820313 8.53125-8.53125v-213.335938c0-4.710937-3.820312-8.53125-8.53125-8.53125zm0 0" fill="#22c06c" data-original="#000000" style="" class=""/><path xmlns="http://www.w3.org/2000/svg" d="m426.667969 204.503906c-4.714844 0-8.535157 3.820313-8.535157 8.53125v213.335938c0 4.710937 3.820313 8.53125 8.535157 8.53125 4.710937 0 8.53125-3.820313 8.53125-8.53125v-213.335938c0-4.710937-3.820313-8.53125-8.53125-8.53125zm0 0" fill="#22c06c" data-original="#000000" style="" class=""/><path xmlns="http://www.w3.org/2000/svg" d="m460.800781 204.503906c-4.714843 0-8.535156 3.820313-8.535156 8.53125v213.335938c0 4.710937 3.820313 8.53125 8.535156 8.53125 4.710938 0 8.53125-3.820313 8.53125-8.53125v-213.335938c0-4.710937-3.820312-8.53125-8.53125-8.53125zm0 0" fill="#22c06c" data-original="#000000" style="" class=""/><path xmlns="http://www.w3.org/2000/svg" d="m181.699219 133.738281c1.601562 1.597657 3.769531 2.5 6.035156 2.5 2.261719 0 4.433594-.902343 6.03125-2.5 7.585937-8.75 11.535156-20.066406 11.035156-31.632812.496094-11.523438-3.414062-22.796875-10.933593-31.539063-4.339844-5.605468-6.515626-12.585937-6.132813-19.664062-.371094-7.03125 1.765625-13.964844 6.03125-19.566406 2.21875-2.140626 3.109375-5.3125 2.328125-8.296876-.78125-2.984374-3.109375-5.316406-6.09375-6.09375-2.984375-.78125-6.15625.105469-8.300781 2.324219-7.585938 8.746094-11.53125 20.066407-11.03125 31.632813-.496094 11.519531 3.410156 22.796875 10.929687 31.539062 4.339844 5.605469 6.519532 12.585938 6.136719 19.664063.371094 7.066406-1.796875 14.039062-6.117187 19.648437-3.257813 3.34375-3.21875 8.683594.082031 11.984375zm0 0" fill="#22c06c" data-original="#000000" style="" class=""/><path xmlns="http://www.w3.org/2000/svg" d="m249.96875 133.738281c1.597656 1.597657 3.769531 2.5 6.03125 2.5s4.433594-.902343 6.03125-2.5c7.585938-8.75 11.535156-20.066406 11.035156-31.632812.496094-11.523438-3.414062-22.796875-10.933594-31.539063-4.335937-5.605468-6.515624-12.585937-6.132812-19.664062-.371094-7.03125 1.769531-13.964844 6.03125-19.566406 2.21875-2.140626 3.109375-5.3125 2.328125-8.296876-.78125-2.984374-3.109375-5.316406-6.09375-6.09375-2.984375-.78125-6.15625.105469-8.296875 2.324219-7.585938 8.746094-11.535156 20.066407-11.035156 31.632813-.496094 11.519531 3.414062 22.796875 10.933594 31.539062 4.335937 5.605469 6.515624 12.585938 6.132812 19.664063.371094 7.066406-1.796875 14.039062-6.117188 19.648437-3.253906 3.34375-3.21875 8.683594.085938 11.984375zm0 0" fill="#22c06c" data-original="#000000" style="" class=""/><path xmlns="http://www.w3.org/2000/svg" d="m318.234375 133.738281c1.597656 1.597657 3.769531 2.5 6.03125 2.5 2.265625 0 4.433594-.902343 6.035156-2.5 7.585938-8.75 11.53125-20.066406 11.03125-31.632812.496094-11.523438-3.410156-22.796875-10.929687-31.539063-4.339844-5.605468-6.519532-12.585937-6.136719-19.664062-.371094-7.03125 1.769531-13.964844 6.035156-19.566406 2.21875-2.140626 3.105469-5.3125 2.324219-8.296876-.777344-2.984374-3.109375-5.316406-6.09375-6.09375-2.984375-.78125-6.15625.105469-8.296875 2.324219-7.585937 8.746094-11.535156 20.066407-11.035156 31.632813-.496094 11.519531 3.414062 22.796875 10.933593 31.539062 4.339844 5.605469 6.515626 12.585938 6.132813 19.664063.375 7.066406-1.796875 14.039062-6.117187 19.648437-3.253907 3.34375-3.21875 8.683594.085937 11.984375zm0 0" fill="#22c06c" data-original="#000000" style="" class=""/></g></svg>
