<?xml version="1.0"?>
<svg xmlns="http://www.w3.org/2000/svg" xmlns:xlink="http://www.w3.org/1999/xlink" xmlns:svgjs="http://svgjs.com/svgjs" version="1.1" width="512" height="512" x="0" y="0" viewBox="0 0 512.003 512.003" style="enable-background:new 0 0 512 512" xml:space="preserve" class=""><g><g xmlns="http://www.w3.org/2000/svg"><path d="m239.454 260.01v-8.016c0-4.142-3.358-7.5-7.5-7.5s-7.5 3.358-7.5 7.5v8.016c0 4.142 3.358 7.5 7.5 7.5s7.5-3.358 7.5-7.5z" fill="#ffffff" data-original="#000000" style="" class=""/><path d="m280.051 267.51c4.142 0 7.5-3.358 7.5-7.5v-8.016c0-4.142-3.358-7.5-7.5-7.5s-7.5 3.358-7.5 7.5v8.016c0 4.142 3.358 7.5 7.5 7.5z" fill="#ffffff" data-original="#000000" style="" class=""/><path d="m507.941 165.168-248.5-128.258c-2.158-1.114-4.722-1.114-6.88 0l-248.499 128.258c-3.681 1.899-5.125 6.423-3.225 10.104 1.9 3.68 6.422 5.125 10.104 3.225l21.125-10.903v293.335h-8.532c-4.142 0-7.5 3.358-7.5 7.5s3.358 7.5 7.5 7.5h464.936c4.142 0 7.5-3.358 7.5-7.5s-3.358-7.5-7.5-7.5h-8.532v-293.335l21.125 10.903c1.1.568 2.275.837 3.434.837 2.717 0 5.339-1.481 6.671-4.062 1.898-3.681.454-8.205-3.227-10.104zm-43.004 295.761h-417.871v-301.077l208.936-107.838 208.936 107.838v301.077z" fill="#ffffff" data-original="#000000" style="" class=""/><path d="m252.964 72.8c-.166.073-.329.152-.489.237l-184.284 95.115c-2.494 1.287-4.06 3.858-4.06 6.665v261.548c0 4.142 3.358 7.5 7.5 7.5h368.742c4.142 0 7.5-3.358 7.5-7.5v-16.028c0-4.142-3.358-7.5-7.5-7.5s-7.5 3.358-7.5 7.5v8.528h-65.162v-25.502c0-17.057-10.872-32.141-27.053-37.534l-39.258-13.086c-3.49-1.164-5.834-4.417-5.834-8.095v-24.966c19.309-12.845 32.064-34.793 32.064-59.672v-10.475c4.774-2.649 8.016-7.738 8.016-13.574v-40.081c0-26.236-21.345-47.581-47.581-47.581h-56.113c-15.073 0-27.71 10.626-30.817 24.779-14.153 3.107-24.779 15.745-24.779 30.817 0 4.142 3.358 7.5 7.5 7.5s7.5-3.358 7.5-7.5c0-9.125 7.423-16.548 16.548-16.548 4.142 0 7.5-3.358 7.5-7.5 0-9.125 7.423-16.548 16.548-16.548h56.113c17.965 0 32.581 14.616 32.581 32.581v40.081c0 .285-.231.516-.516.516-9.125 0-16.548-7.423-16.548-16.548 0-12.976-10.557-23.532-23.532-23.532h-48.097c-12.976 0-23.532 10.557-23.532 23.532 0 9.125-7.423 16.548-16.548 16.548-.285 0-.516-.231-.516-.516 0-4.142-3.358-7.5-7.5-7.5s-7.5 3.358-7.5 7.5c0 5.836 3.242 10.925 8.016 13.574v10.475c0 24.879 12.756 46.827 32.064 59.672v24.966c0 3.678-2.345 6.932-5.834 8.095l-39.258 13.086c-16.182 5.394-27.053 20.478-27.053 37.534v25.502h-65.162v-249.48l176.871-91.288 176.871 91.288v208.885c0 4.142 3.358 7.5 7.5 7.5s7.5-3.358 7.5-7.5v-213.453c0-2.806-1.566-5.377-4.06-6.665l-184.277-95.111c-.178-.095-.36-.183-.545-.263-.967-.421-1.981-.623-2.982-.623-.005 0-.008 0-.013 0-1.017.001-2.049.209-3.031.645zm-53.591 187.21v-9.441c13.786-3.375 24.048-15.829 24.048-30.64 0-4.705 3.828-8.532 8.532-8.532h48.097c4.705 0 8.532 3.828 8.532 8.532 0 14.812 10.262 27.265 24.048 30.64v9.441c0 31.225-25.404 56.629-56.629 56.629s-56.628-25.404-56.628-56.629zm56.629 71.629c8.625 0 16.899-1.533 24.564-4.34v17.349c0 8.396 4.437 15.978 11.421 20.165-9.152 10.086-22.149 15.955-35.985 15.955-13.801 0-26.832-5.873-35.989-15.953 6.985-4.186 11.424-11.769 11.424-20.167v-17.349c7.665 2.806 15.939 4.34 24.565 4.34zm-96.71 71.724c0-10.59 6.75-19.955 16.796-23.304l29.063-9.688c12.001 15.949 30.81 25.397 50.85 25.397 20.093 0 38.849-9.434 50.852-25.396l29.061 9.687c10.046 3.349 16.796 12.714 16.796 23.304v25.502h-193.418z" fill="#ffffff" data-original="#000000" style="" class=""/><path d="m274.896 292.134c2.985-2.872 3.076-7.62.204-10.604-2.871-2.985-7.62-3.076-10.604-.204-2.146 2.064-5.242 3.249-8.494 3.249s-6.349-1.184-8.494-3.249c-2.985-2.872-7.732-2.78-10.604.204-2.872 2.985-2.781 7.732.204 10.604 4.986 4.798 11.696 7.44 18.895 7.44s13.907-2.642 18.893-7.44z" fill="#ffffff" data-original="#000000" style="" class=""/></g></g></svg>
