<?xml version="1.0"?>
<svg xmlns="http://www.w3.org/2000/svg" xmlns:xlink="http://www.w3.org/1999/xlink" xmlns:svgjs="http://svgjs.com/svgjs" version="1.1" width="512" height="512" x="0" y="0" viewBox="0 0 512 512" style="enable-background:new 0 0 512 512" xml:space="preserve" class=""><g><g xmlns="http://www.w3.org/2000/svg"><path d="m350.341 16.032h-178.756c.129-3.711-1.054-7.357-3.442-10.297-2.959-3.645-7.349-5.735-12.044-5.735h-18.696c-14.845 0-27.831 10.545-30.877 25.074l-35.643 169.984c-1.461 6.969.275 14.136 4.764 19.664s11.147 8.698 18.268 8.698h19.118l-54.562 260.219c-1.461 6.969.275 14.136 4.764 19.664 4.489 5.527 11.147 8.697 18.268 8.697h61.356c17.056 0 32.14-10.872 37.534-27.053l63.127-189.383h32.795c6.685 0 13.076-2.857 17.534-7.838s6.592-11.649 5.854-18.293l-5.113-46.014h39.717c21.816 0 39.564-17.749 39.564-39.564v-144.291c.002-12.975-10.554-23.532-23.53-23.532zm8.532 120.242h-8.532c-4.705 0-8.532-3.828-8.532-8.533v-48.096c0-4.705 3.828-8.532 8.532-8.532h8.532zm-182.276 312.629h-24.152c-2.776 0-5.299-1.292-6.922-3.543s-2.05-5.054-1.172-7.687l36.426-109.28c3.349-10.046 12.714-16.796 23.304-16.796h18.285zm108.199-177.813c.271 2.444-.482 4.8-2.123 6.633s-3.898 2.842-6.357 2.842h-27.795l19.048-57.145h11.93zm49.513-62.671h-176.355c-4.142 0-7.5 3.358-7.5 7.5s3.358 7.5 7.5 7.5h93.804l-24.392 73.177h-23.285c-17.057 0-32.141 10.872-37.534 27.053l-36.427 109.281c-2.421 7.263-1.242 14.99 3.234 21.201 4.477 6.21 11.435 9.772 19.09 9.772h19.152l-5.433 16.3c-3.348 10.047-12.714 16.797-23.304 16.797h-61.356c-2.582 0-4.996-1.149-6.624-3.153-1.627-2.005-2.257-4.604-1.728-7.13l86.712-413.548c.85-4.054-1.747-8.029-5.801-8.879s-8.029 1.748-8.879 5.801l-29.004 138.329h-22.264c-2.582 0-4.996-1.149-6.624-3.154-1.627-2.004-2.257-4.603-1.728-7.129l35.642-169.984c1.599-7.622 8.41-13.153 16.197-13.153h18.696c.074 0 .246 0 .401.191s.12.359.104.431l-4.698 22.404c-.85 4.054 1.747 8.029 5.801 8.879 4.051.849 8.029-1.748 8.879-5.801l2.112-10.072h181.642c4.705 0 8.532 3.828 8.532 8.532v16.548h-8.532c-12.976 0-23.532 10.557-23.532 23.532v48.097c0 12.976 10.557 23.533 23.532 23.533h8.532v32.581c.002 13.545-11.017 24.564-24.562 24.564z" fill="#ffffff" data-original="#000000" style="" class=""/><path d="m398.438 112.226c-4.142 0-7.5 3.358-7.5 7.5s3.358 7.5 7.5 7.5c12.976 0 23.532-10.557 23.532-23.532s-10.557-23.532-23.532-23.532c-4.142 0-7.5 3.358-7.5 7.5s3.358 7.5 7.5 7.5c4.705 0 8.532 3.828 8.532 8.532s-3.828 8.532-8.532 8.532z" fill="#ffffff" data-original="#000000" style="" class=""/><path d="m398.438 48.097c-4.142 0-7.5 3.358-7.5 7.5s3.358 7.5 7.5 7.5c22.385 0 40.597 18.211 40.597 40.597s-18.212 40.597-40.597 40.597c-4.142 0-7.5 3.358-7.5 7.5s3.358 7.5 7.5 7.5c30.656 0 55.597-24.941 55.597-55.597s-24.941-55.597-55.597-55.597z" fill="#ffffff" data-original="#000000" style="" class=""/></g></g></svg>
